<svg width="40" height="41" viewBox="0 0 40 41" fill="none" xmlns="http://www.w3.org/2000/svg">
<rect y="0.00418091" width="40" height="40" rx="20" fill="#EDA652"/>
<path fill-rule="evenodd" clip-rule="evenodd" d="M20 10.0042C16.13 10.0042 13 13.1342 13 17.0042C13 22.2542 20 30.0042 20 30.0042C20 30.0042 27 22.2542 27 17.0042C27 13.1342 23.87 10.0042 20 10.0042ZM15 17.0042C15 14.2442 17.24 12.0042 20 12.0042C22.76 12.0042 25 14.2442 25 17.0042C25 19.8842 22.12 24.1942 20 26.8842C17.92 24.2142 15 19.8542 15 17.0042ZM17.5 17.0042C17.5 15.6235 18.6193 14.5042 20 14.5042C20.8932 14.5042 21.7185 14.9807 22.1651 15.7542C22.6116 16.5277 22.6116 17.4807 22.1651 18.2542C21.7185 19.0277 20.8932 19.5042 20 19.5042C18.6193 19.5042 17.5 18.3849 17.5 17.0042Z" fill="white"/>
</svg>
