<svg width="34" height="34" viewBox="0 0 34 34" fill="none" xmlns="http://www.w3.org/2000/svg">
<rect width="34" height="34" rx="17" fill="var(--primary-orange)"/>
<path fill-rule="evenodd" clip-rule="evenodd" d="M17 7C13.13 7 10 10.13 10 14C10 19.25 17 27 17 27C17 27 24 19.25 24 14C24 10.13 20.87 7 17 7ZM12 14C12 11.24 14.24 9 17 9C19.76 9 22 11.24 22 14C22 16.88 19.12 21.19 17 23.88C14.92 21.21 12 16.85 12 14ZM14.5 14C14.5 12.6193 15.6193 11.5 17 11.5C17.8932 11.5 18.7185 11.9765 19.1651 12.75C19.6116 13.5235 19.6116 14.4765 19.1651 15.25C18.7185 16.0235 17.8932 16.5 17 16.5C15.6193 16.5 14.5 15.3807 14.5 14Z" fill="white"/>
</svg>
