<svg width="16" height="16" viewBox="0 0 16 16" fill="none" xmlns="http://www.w3.org/2000/svg">
<path fill-rule="evenodd" clip-rule="evenodd" d="M9.20459 3.63492L10.361 4.75758L5.23385 9.89014C4.97658 10.149 4.97658 10.5656 5.23385 10.8245C5.47798 11.0701 5.88581 11.069 6.12733 10.8231L11.7683 5.1739C12.5918 4.3454 12.5918 3.01483 11.7683 2.18634C10.9826 1.39586 9.59234 1.41345 8.8223 2.18784L2.66535 8.34953C1.27527 9.74746 1.27527 11.9922 2.66535 13.3901C4.01517 14.7476 6.33397 14.7255 7.66272 13.3889L14.8435 6.19915L16 7.32171L8.82051 14.5101C6.86167 16.4805 3.49755 16.5126 1.50638 14.5102C-0.502357 12.4901 -0.502357 9.24956 1.50776 7.22809L7.66472 1.0664C9.06324 -0.340043 11.4988 -0.370848 12.9275 1.06652C14.3693 2.51712 14.3693 4.84311 12.9262 6.29502L7.28862 11.9408C6.41654 12.8288 4.95762 12.8328 4.07456 11.9442C3.19906 11.0633 3.19906 9.65136 4.07602 8.76894L9.20459 3.63492Z" fill="#343434"/>
</svg>
