<svg width="34" height="34" viewBox="0 0 34 34" fill="none" xmlns="http://www.w3.org/2000/svg">
<rect width="34" height="34" rx="17" fill="var(--primary-orange)"/>
<path d="M17 8.66666C15.7218 8.6666 14.4606 8.96061 13.3142 9.52593C12.1677 10.0913 11.1667 10.9127 10.3885 11.9268C9.6103 12.9409 9.07584 14.1205 8.82646 15.3742C8.57707 16.6279 8.61944 17.9221 8.95028 19.1568C9.28112 20.3916 9.89157 21.5336 10.7344 22.4946C11.5772 23.4557 12.6299 24.2099 13.8108 24.6991C14.9918 25.1882 16.2695 25.3991 17.545 25.3155C18.8205 25.2318 20.0597 24.8558 21.1667 24.2167C21.2663 24.1646 21.3543 24.0929 21.4255 24.0059C21.4966 23.9189 21.5494 23.8184 21.5808 23.7104C21.6121 23.6025 21.6212 23.4893 21.6077 23.3778C21.5941 23.2662 21.5581 23.1585 21.5019 23.0612C21.4456 22.9639 21.3703 22.879 21.2804 22.8116C21.1905 22.7441 21.0878 22.6956 20.9787 22.6688C20.8695 22.6421 20.7561 22.6377 20.6452 22.656C20.5343 22.6742 20.4282 22.7147 20.3334 22.775C19.0625 23.5087 17.585 23.8027 16.13 23.6111C14.6751 23.4196 13.324 22.7534 12.2862 21.7158C11.2485 20.6782 10.5821 19.3271 10.3905 17.8722C10.1988 16.4173 10.4925 14.9398 11.2261 13.6688C11.9598 12.3978 13.0922 11.4044 14.4479 10.8426C15.8036 10.2809 17.3068 10.1821 18.7244 10.5617C20.142 10.9413 21.3947 11.778 22.2882 12.942C23.1818 14.1061 23.6664 15.5325 23.6667 17V17.625C23.6667 18.0118 23.513 18.3827 23.2396 18.6562C22.9661 18.9297 22.5951 19.0833 22.2084 19.0833C21.8216 19.0833 21.4506 18.9297 21.1772 18.6562C20.9037 18.3827 20.75 18.0118 20.75 17.625V14.0833C20.75 13.8623 20.6622 13.6503 20.5059 13.4941C20.3497 13.3378 20.1377 13.25 19.9167 13.25C19.7229 13.2457 19.5337 13.3091 19.3816 13.4292C19.2295 13.5494 19.124 13.7188 19.0834 13.9083C18.4708 13.4846 17.7448 13.2552 17 13.25C16.3727 13.2425 15.7534 13.3925 15.1991 13.6863C14.6447 13.9801 14.1729 14.4083 13.8269 14.9317C13.4809 15.4551 13.2718 16.0569 13.2187 16.6821C13.1655 17.3072 13.2701 17.9357 13.5227 18.51C13.7754 19.0843 14.1682 19.586 14.665 19.9691C15.1618 20.3523 15.7468 20.6047 16.3664 20.7032C16.986 20.8017 17.6205 20.7432 18.2116 20.533C18.8028 20.3228 19.3317 19.9676 19.75 19.5C20.146 20.0128 20.6919 20.3894 21.3118 20.5775C21.9317 20.7656 22.5949 20.7559 23.209 20.5497C23.8232 20.3434 24.3578 19.9509 24.7385 19.4268C25.1192 18.9026 25.3272 18.2728 25.3334 17.625V17C25.3334 15.9056 25.1178 14.822 24.699 13.811C24.2802 12.7999 23.6664 11.8813 22.8926 11.1074C22.1188 10.3336 21.2001 9.71978 20.189 9.30099C19.178 8.8822 18.0944 8.66666 17 8.66666V8.66666ZM17 19.0833C16.588 19.0833 16.1852 18.9611 15.8426 18.7322C15.5 18.5033 15.233 18.1779 15.0753 17.7972C14.9176 17.4166 14.8763 16.9977 14.9567 16.5936C15.0371 16.1894 15.2355 15.8182 15.5269 15.5269C15.8182 15.2355 16.1895 15.0371 16.5936 14.9567C16.9977 14.8763 17.4166 14.9176 17.7973 15.0752C18.178 15.2329 18.5033 15.5 18.7322 15.8426C18.9612 16.1852 19.0834 16.5879 19.0834 17C19.0834 17.5525 18.8639 18.0824 18.4732 18.4731C18.0825 18.8638 17.5526 19.0833 17 19.0833V19.0833Z" fill="white"/>
</svg>
