<svg width="40" height="41" viewBox="0 0 40 41" fill="none" xmlns="http://www.w3.org/2000/svg">
<rect y="0.00418091" width="40" height="40" rx="20" fill="#EDA652"/>
<path d="M20 11.6708C18.7218 11.6708 17.4606 11.9648 16.3142 12.5301C15.1677 13.0954 14.1667 13.9169 13.3885 14.931C12.6103 15.9451 12.0758 17.1246 11.8265 18.3783C11.5771 19.6321 11.6194 20.9263 11.9503 22.161C12.2811 23.3957 12.8916 24.5378 13.7344 25.4988C14.5772 26.4599 15.6299 27.2141 16.8108 27.7033C17.9918 28.1924 19.2695 28.4033 20.545 28.3196C21.8205 28.236 23.0597 27.86 24.1667 27.2208C24.2663 27.1687 24.3543 27.097 24.4255 27.01C24.4966 26.923 24.5494 26.8226 24.5808 26.7146C24.6121 26.6067 24.6212 26.4935 24.6077 26.382C24.5941 26.2704 24.5581 26.1627 24.5019 26.0654C24.4456 25.9681 24.3703 25.8832 24.2804 25.8157C24.1905 25.7483 24.0878 25.6998 23.9787 25.673C23.8695 25.6463 23.7561 25.6419 23.6452 25.6602C23.5343 25.6784 23.4282 25.7189 23.3334 25.7792C22.0625 26.5129 20.585 26.8068 19.13 26.6153C17.6751 26.4238 16.324 25.7576 15.2862 24.72C14.2485 23.6824 13.5821 22.3313 13.3905 20.8764C13.1988 19.4215 13.4925 17.944 14.2261 16.673C14.9598 15.402 16.0922 14.4086 17.4479 13.8468C18.8036 13.2851 20.3068 13.1863 21.7244 13.5659C23.142 13.9454 24.3947 14.7822 25.2882 15.9462C26.1818 17.1103 26.6664 18.5367 26.6667 20.0042V20.6292C26.6667 21.0159 26.513 21.3869 26.2396 21.6604C25.9661 21.9339 25.5951 22.0875 25.2084 22.0875C24.8216 22.0875 24.4506 21.9339 24.1772 21.6604C23.9037 21.3869 23.75 21.0159 23.75 20.6292V17.0875C23.75 16.8665 23.6622 16.6545 23.5059 16.4982C23.3497 16.342 23.1377 16.2542 22.9167 16.2542C22.7229 16.2499 22.5337 16.3132 22.3816 16.4334C22.2295 16.5536 22.124 16.723 22.0834 16.9125C21.4708 16.4888 20.7448 16.2594 20 16.2542C19.3727 16.2467 18.7534 16.3967 18.1991 16.6905C17.6447 16.9843 17.1729 17.4125 16.8269 17.9359C16.4809 18.4593 16.2718 19.0611 16.2187 19.6863C16.1655 20.3114 16.2701 20.9399 16.5227 21.5142C16.7754 22.0884 17.1682 22.5901 17.665 22.9733C18.1618 23.3565 18.7468 23.6089 19.3664 23.7074C19.986 23.8059 20.6205 23.7474 21.2116 23.5372C21.8028 23.3269 22.3317 22.9718 22.75 22.5042C23.146 23.0169 23.6919 23.3936 24.3118 23.5817C24.9317 23.7698 25.5949 23.7601 26.209 23.5538C26.8232 23.3476 27.3578 22.9551 27.7385 22.4309C28.1192 21.9068 28.3272 21.277 28.3334 20.6292V20.0042C28.3334 18.9098 28.1178 17.8262 27.699 16.8151C27.2802 15.8041 26.6664 14.8854 25.8926 14.1116C25.1188 13.3378 24.2001 12.724 23.189 12.3052C22.178 11.8864 21.0944 11.6708 20 11.6708ZM20 22.0875C19.588 22.0875 19.1852 21.9653 18.8426 21.7364C18.5 21.5075 18.233 21.1821 18.0753 20.8014C17.9176 20.4207 17.8763 20.0019 17.9567 19.5977C18.0371 19.1936 18.2355 18.8224 18.5269 18.531C18.8182 18.2397 19.1895 18.0413 19.5936 17.9609C19.9977 17.8805 20.4166 17.9217 20.7973 18.0794C21.178 18.2371 21.5033 18.5041 21.7322 18.8467C21.9612 19.1893 22.0834 19.5921 22.0834 20.0042C22.0834 20.5567 21.8639 21.0866 21.4732 21.4773C21.0825 21.868 20.5526 22.0875 20 22.0875Z" fill="white"/>
</svg>
