<svg width="41" height="41" viewBox="0 0 41 41" fill="none" xmlns="http://www.w3.org/2000/svg">
<rect width="40.0023" height="40.0042" rx="20.0011" fill="#EDA652"/>
<path d="M15.8811 39.0905C15.8811 38.6581 15.8654 37.5138 15.8565 35.9951C10.7932 37.0947 9.72494 33.5546 9.72494 33.5546C8.8969 31.4515 7.70345 30.8917 7.70345 30.8917C6.05071 29.763 7.8286 29.7854 7.8286 29.7854C9.65566 29.9139 10.6167 31.6616 10.6167 31.6616C12.2404 34.443 14.8776 33.6395 15.9146 33.1735C16.08 31.998 16.5504 31.1956 17.0701 30.7408C13.0282 30.2804 8.77845 28.7193 8.77845 21.7441C8.77845 19.7561 9.48805 18.1324 10.6524 16.8596C10.4647 16.3993 9.84004 14.5487 10.8312 12.0422C10.8312 12.0422 12.3588 11.5528 15.8364 13.9073C17.288 13.5039 18.8457 13.3027 20.3934 13.2949C21.94 13.3027 23.4966 13.5039 24.9504 13.9073C28.4258 11.5528 29.9511 12.0422 29.9511 12.0422C30.9445 14.5487 30.3199 16.3993 30.1333 16.8596C31.2999 18.1324 32.0039 19.7561 32.0039 21.7441C32.0039 28.7372 27.7475 30.2759 23.6933 30.7263C24.3459 31.2884 24.9281 32.3991 24.9281 34.0977C24.9281 36.5304 24.9057 38.4938 24.9057 39.0905C24.9057 39.5025 25.1488 39.9712 25.7798 39.9987H14.9531C15.6269 39.9962 15.8811 39.513 15.8811 39.0905Z" fill="white"/>
</svg>
