<svg width="34" height="34" viewBox="0 0 34 34" fill="none" xmlns="http://www.w3.org/2000/svg">
<rect width="34" height="34" rx="17" fill="#EDA652"/>
<path d="M13.4981 33.2235C13.4981 32.8559 13.4848 31.8834 13.4772 30.5927C9.17372 31.5272 8.26571 28.5184 8.26571 28.5184C7.56192 26.731 6.54754 26.2552 6.54754 26.2552C5.1428 25.2959 6.65392 25.3149 6.65392 25.3149C8.20683 25.4242 9.02365 26.9096 9.02365 26.9096C10.4037 29.2735 12.6452 28.5906 13.5266 28.1946C13.6672 27.1954 14.067 26.5135 14.5087 26.1269C11.0733 25.7357 7.46124 24.4089 7.46124 18.4805C7.46124 16.7909 8.06436 15.411 9.05405 14.3292C8.89448 13.9379 8.36354 12.3651 9.20601 10.2348C9.20601 10.2348 10.5044 9.81881 13.4601 11.8199C14.6939 11.4771 16.0179 11.3061 17.3334 11.2995C18.6479 11.3061 19.971 11.4771 21.2066 11.8199C24.1605 9.81881 25.457 10.2348 25.457 10.2348C26.3013 12.3651 25.7704 13.9379 25.6118 14.3292C26.6034 15.411 27.2017 16.7909 27.2017 18.4805C27.2017 24.4241 23.584 25.7319 20.1381 26.1146C20.6928 26.5923 21.1877 27.5364 21.1877 28.98C21.1877 31.0476 21.1686 32.7163 21.1686 33.2235C21.1686 33.5736 21.3752 33.972 21.9116 33.9954H12.7094C13.2821 33.9932 13.4981 33.5825 13.4981 33.2235Z" fill="white"/>
</svg>
