<svg width="26" height="26" viewBox="0 0 26 26" fill="none" xmlns="http://www.w3.org/2000/svg">
<rect width="26" height="26" rx="13" fill="#333333"/>
<path d="M10.3221 25.4062C10.3221 25.1251 10.3119 24.3814 10.3061 23.3944C7.01521 24.1091 6.32085 21.8082 6.32085 21.8082C5.78266 20.4414 5.00696 20.0775 5.00696 20.0775C3.93274 19.344 5.0883 19.3585 5.0883 19.3585C6.27583 19.442 6.90045 20.5779 6.90045 20.5779C7.95578 22.3856 9.66988 21.8634 10.3439 21.5606C10.4514 20.7965 10.7572 20.275 11.0949 19.9794C8.46783 19.6802 5.70567 18.6656 5.70567 14.1322C5.70567 12.8401 6.16688 11.7849 6.9237 10.9576C6.80168 10.6584 6.39567 9.45567 7.03991 7.82663C7.03991 7.82663 8.03277 7.50851 10.2931 9.03878C11.2365 8.77659 12.249 8.64587 13.255 8.64078C14.2602 8.64587 15.2719 8.77659 16.2169 9.03878C18.4757 7.50851 19.4671 7.82663 19.4671 7.82663C20.1128 9.45567 19.7068 10.6584 19.5855 10.9576C20.3438 11.7849 20.8013 12.8401 20.8013 14.1322C20.8013 18.6772 18.0348 19.6773 15.3998 19.97C15.8239 20.3353 16.2023 21.0572 16.2023 22.1612C16.2023 23.7423 16.1878 25.0184 16.1878 25.4062C16.1878 25.674 16.3458 25.9786 16.7559 25.9965H9.71897C10.1569 25.9948 10.3221 25.6808 10.3221 25.4062Z" fill="white"/>
</svg>
