<svg width="12" height="12" viewBox="0 0 12 12" fill="none" xmlns="http://www.w3.org/2000/svg">
<rect width="12" height="12" rx="6" fill="#333333"/>
<path d="M4.76402 11.7259C4.76402 11.5962 4.75933 11.2529 4.75665 10.7974C3.23776 11.1272 2.91729 10.0653 2.91729 10.0653C2.66889 9.43446 2.31088 9.26652 2.31088 9.26652C1.81508 8.92796 2.34842 8.93467 2.34842 8.93467C2.89651 8.97322 3.1848 9.49748 3.1848 9.49748C3.67187 10.3318 4.46299 10.0908 4.77408 9.95101C4.82369 9.59837 4.96482 9.35769 5.1207 9.22126C3.9082 9.08316 2.63336 8.61488 2.63336 6.52253C2.63336 5.9262 2.84622 5.43915 3.19552 5.05735C3.13921 4.91925 2.95182 4.36414 3.24916 3.61227C3.24916 3.61227 3.7074 3.46545 4.75061 4.17173C5.18606 4.05072 5.65336 3.99038 6.11764 3.98804C6.58159 3.99038 7.04855 4.05072 7.48468 4.17173C8.52721 3.46545 8.98479 3.61227 8.98479 3.61227C9.2828 4.36414 9.09541 4.91925 9.03943 5.05735C9.3894 5.43915 9.60059 5.9262 9.60059 6.52253C9.60059 8.62025 8.32373 9.08182 7.10755 9.21691C7.30332 9.38552 7.47797 9.71871 7.47797 10.2282C7.47797 10.958 7.47127 11.5469 7.47127 11.7259C7.47127 11.8495 7.54417 11.9901 7.73348 11.9983H4.48565C4.68778 11.9976 4.76402 11.8526 4.76402 11.7259Z" fill="white"/>
</svg>
