<svg width="30" height="31" viewBox="0 0 30 31" fill="none" xmlns="http://www.w3.org/2000/svg">
<rect y="0.183105" width="30" height="30" rx="15" fill="#F7DF1E"/>
<path fill-rule="evenodd" clip-rule="evenodd" d="M7.69261 18.2337L5.48291 19.6229C6.12251 21.0323 7.3825 22.2 9.5532 22.2C11.9567 22.2 13.6041 20.8711 13.6041 17.9514V8.327H10.8906V17.9116C10.8906 19.3209 10.3285 19.6833 9.43687 19.6833C8.50669 19.6833 8.1189 19.0189 7.69261 18.2337ZM17.2874 17.992L15.0779 19.3209C15.8725 20.952 17.5007 22.2003 20.0204 22.2003C22.5982 22.2003 24.5171 20.8111 24.5171 18.2739C24.5171 15.9181 23.2184 14.8712 20.9119 13.8442L20.2335 13.5422C19.0707 13.0186 18.5667 12.6763 18.5667 11.8305C18.5667 11.1461 19.0707 10.6226 19.8654 10.6226C20.6407 10.6226 21.1445 10.9648 21.6097 11.8305L23.7224 10.4211C22.8309 8.79015 21.5904 8.16589 19.8654 8.16589C17.4425 8.16589 15.8919 9.77679 15.8919 11.891C15.8919 14.1865 17.1906 15.2738 19.1483 16.1395L19.8265 16.4417C21.067 17.0053 21.8035 17.3476 21.8035 18.3142C21.8035 19.1196 21.0865 19.7036 19.9622 19.7036C18.6249 19.7036 17.869 18.9787 17.2874 17.992Z" fill="white"/>
</svg>
