<svg width="40" height="40" viewBox="0 0 40 40" fill="none" xmlns="http://www.w3.org/2000/svg">
<rect width="40" height="40" rx="20" fill="#EDA652"/>
<path d="M31.1043 29.4375C29.7918 29.4063 28.5106 29.4063 27.1981 29.4375C26.9168 29.4375 26.8543 29.375 26.8543 29.0938C26.8543 26.7813 26.8543 24.4375 26.8543 22.125C26.8543 21.5938 26.8231 21.0625 26.6668 20.5625C26.1981 18.9375 24.3231 18.3438 22.9793 19.4375C22.2606 20 21.9793 20.7813 21.9793 21.7188C21.9793 23.9063 21.9793 26.0938 21.9793 28.2813C21.9793 28.5625 21.9481 28.8438 21.9793 29.1563C22.0106 29.4063 21.8856 29.4688 21.6668 29.4375C20.3231 29.4375 19.0106 29.4375 17.6668 29.4375C17.4168 29.4375 17.3543 29.375 17.3543 29.125C17.3856 27.1563 17.3856 25.1875 17.3856 23.1875C17.3856 20.75 17.3856 18.3125 17.3543 15.9063C17.3543 15.625 17.4168 15.5625 17.6668 15.5625C19.0106 15.5625 20.3231 15.5625 21.6668 15.5625C21.9168 15.5625 21.9793 15.625 21.9793 15.875C21.9793 16.375 21.9793 16.875 21.9793 17.4688C22.0731 17.375 22.1043 17.3438 22.1356 17.3125C23.3543 15.5313 25.0731 15.0313 27.1043 15.3438C29.4481 15.7188 30.9481 17.3438 31.3231 19.8438C31.4168 20.4375 31.4481 21.0313 31.4481 21.625C31.4481 24.125 31.4481 26.5938 31.4481 29.0938C31.4481 29.3438 31.3856 29.4375 31.1043 29.4375Z" fill="white"/>
<path d="M14.8543 22.5C14.8543 24.6875 14.8543 26.875 14.8543 29.0625C14.8543 29.3438 14.7918 29.4375 14.5106 29.4375C13.1981 29.4063 11.8856 29.4375 10.5731 29.4375C10.3231 29.4375 10.2606 29.375 10.2606 29.125C10.2606 24.7188 10.2606 20.2813 10.2606 15.875C10.2606 15.6563 10.3231 15.5625 10.5731 15.5625C11.9168 15.5625 13.2606 15.5625 14.6043 15.5625C14.8856 15.5625 14.9168 15.6563 14.9168 15.9063C14.8543 18.0938 14.8543 20.2813 14.8543 22.5Z" fill="white"/>
<path d="M15.073 11.9375C14.7605 13.1875 13.4792 13.9063 12.0105 13.6563C10.448 13.4063 9.57297 11.875 10.1355 10.375C10.5105 9.43752 11.4167 8.87502 12.573 8.90627C14.323 8.87502 15.4792 10.2813 15.073 11.9375Z" fill="white"/>
</svg>
