<svg width="34" height="34" viewBox="0 0 34 34" fill="none" xmlns="http://www.w3.org/2000/svg">
<rect width="34" height="34" rx="17" fill="#EDA652"/>
<path d="M26.4387 25.0219C25.323 24.9953 24.234 24.9953 23.1183 25.0219C22.8793 25.0219 22.8262 24.9688 22.8262 24.7297C22.8262 22.7641 22.8262 20.7719 22.8262 18.8063C22.8262 18.3547 22.7996 17.9031 22.6668 17.4781C22.2683 16.0969 20.6746 15.5922 19.5324 16.5219C18.9215 17 18.6824 17.6641 18.6824 18.461C18.6824 20.3203 18.6824 22.1797 18.6824 24.0391C18.6824 24.2781 18.6558 24.5172 18.6824 24.7828C18.709 24.9953 18.6027 25.0485 18.4168 25.0219C17.2746 25.0219 16.159 25.0219 15.0168 25.0219C14.8043 25.0219 14.7512 24.9688 14.7512 24.7563C14.7777 23.0828 14.7777 21.4094 14.7777 19.7094C14.7777 17.6375 14.7777 15.5656 14.7512 13.5203C14.7512 13.2813 14.8043 13.2281 15.0168 13.2281C16.159 13.2281 17.2746 13.2281 18.4168 13.2281C18.6293 13.2281 18.6824 13.2813 18.6824 13.4938C18.6824 13.9188 18.6824 14.3438 18.6824 14.8485C18.7621 14.7688 18.7887 14.7422 18.8152 14.7156C19.8512 13.2016 21.3121 12.7766 23.0387 13.0422C25.0308 13.361 26.3058 14.7422 26.6246 16.8672C26.7043 17.3719 26.7308 17.8766 26.7308 18.3813C26.7308 20.5063 26.7308 22.6047 26.7308 24.7297C26.7308 24.9422 26.6777 25.0219 26.4387 25.0219Z" fill="white"/>
<path d="M12.6262 19.125C12.6262 20.9844 12.6262 22.8438 12.6262 24.7031C12.6262 24.9422 12.5731 25.0219 12.334 25.0219C11.2184 24.9953 10.1027 25.0219 8.98712 25.0219C8.77462 25.0219 8.7215 24.9688 8.7215 24.7563C8.7215 21.0109 8.7215 17.2391 8.7215 13.4938C8.7215 13.3078 8.77462 13.2281 8.98712 13.2281C10.1293 13.2281 11.2715 13.2281 12.4137 13.2281C12.6527 13.2281 12.6793 13.3078 12.6793 13.5203C12.6262 15.3797 12.6262 17.2391 12.6262 19.125Z" fill="white"/>
<path d="M12.812 10.1469C12.5464 11.2094 11.4574 11.8203 10.2089 11.6078C8.88079 11.3953 8.13704 10.0938 8.61517 8.81876C8.93392 8.02189 9.70423 7.54376 10.687 7.57033C12.1745 7.54376 13.1574 8.73908 12.812 10.1469Z" fill="white"/>
</svg>
