<svg width="70" height="26" viewBox="0 0 70 26" fill="none" xmlns="http://www.w3.org/2000/svg">
<g clip-path="url(#clip0_305_1027)">
<path d="M36.1397 8.61181L39.47 8.39652C39.546 8.94109 39.6852 9.34635 39.9132 9.63763C40.2804 10.0935 40.7869 10.3215 41.458 10.3215C41.9519 10.3215 42.3444 10.2075 42.6104 9.9669C42.8636 9.77694 43.0156 9.47299 43.0156 9.15638C43.0156 8.85244 42.8763 8.56115 42.6357 8.37119C42.3824 8.14323 41.7873 7.91527 40.8502 7.71264C39.318 7.3707 38.2164 6.91478 37.5706 6.33222C36.9248 5.78765 36.5575 4.9898 36.5829 4.14128C36.5829 3.55872 36.7601 2.97616 37.0894 2.49491C37.4692 1.95034 37.9884 1.51975 38.6089 1.27913C39.28 0.987849 40.2171 0.835876 41.3947 0.835876C42.8383 0.835876 43.9399 1.10183 44.6997 1.6464C45.4595 2.1783 45.9153 3.03948 46.0546 4.21727L42.7623 4.40723C42.6737 3.90066 42.4964 3.53339 42.2051 3.29277C41.9139 3.05214 41.534 2.93817 41.0402 2.93817C40.635 2.93817 40.331 3.02682 40.1284 3.19145C39.9385 3.34343 39.8119 3.57138 39.8245 3.82467C39.8245 4.01464 39.9258 4.19194 40.0778 4.30592C40.2424 4.45789 40.635 4.5972 41.2554 4.72384C42.7876 5.05312 43.8766 5.38239 44.5478 5.72433C45.2189 6.06627 45.7001 6.48419 45.9913 6.97811C46.2952 7.48468 46.4472 8.06724 46.4345 8.66247C46.4345 9.37168 46.2319 10.0809 45.8267 10.6761C45.4088 11.2967 44.8263 11.7779 44.1426 12.0692C43.4208 12.3858 42.509 12.5504 41.42 12.5504C39.4953 12.5504 38.1657 12.1832 37.4186 11.436C36.6715 10.6888 36.2283 9.75161 36.1397 8.61181ZM0.797757 12.3605V1.03851H6.63531C7.71165 1.03851 8.5474 1.12716 9.11722 1.31712C9.67439 1.49442 10.1682 1.86169 10.4975 2.3556C10.8647 2.90017 11.042 3.53339 11.0293 4.19194C11.0673 5.30641 10.4975 6.37022 9.52243 6.92745C9.14255 7.14274 8.72468 7.29472 8.29414 7.3707C8.61071 7.45935 8.92728 7.61133 9.20586 7.78863C9.42113 7.96593 9.59841 8.16856 9.76303 8.38385C9.95297 8.59915 10.1176 8.83977 10.2569 9.09306L11.9537 12.3731H7.97757L6.10347 8.89043C5.86288 8.44718 5.66028 8.15589 5.47033 8.01659C5.21708 7.83928 4.91317 7.75063 4.60926 7.75063H4.30536V12.3478H0.797757V12.3605ZM4.30536 5.62302H5.7869C6.10347 5.59769 6.40738 5.54703 6.71129 5.47104C6.93922 5.43305 7.14182 5.30641 7.28112 5.11644C7.62301 4.66052 7.57236 4.01464 7.15449 3.62204C6.92656 3.43208 6.48336 3.33076 5.85022 3.33076H4.30536V5.62302ZM0 22.0614L3.33032 21.8461C3.4063 22.3907 3.54559 22.7959 3.77352 23.0872C4.12808 23.5431 4.64725 23.7838 5.31838 23.7838C5.81223 23.7838 6.20478 23.6698 6.4707 23.4291C6.72395 23.2265 6.87591 22.9352 6.87591 22.6186C6.87591 22.3147 6.73661 22.0234 6.49602 21.8334C6.24276 21.6055 5.64761 21.3775 4.6979 21.1749C3.1657 20.8329 2.06404 20.377 1.41823 19.7945C0.772431 19.2499 0.40521 18.452 0.430535 17.6035C0.430535 17.021 0.607815 16.4384 0.937048 15.9572C1.31693 15.4126 1.83611 14.982 2.45658 14.7414C3.12771 14.4501 4.06476 14.2981 5.2424 14.2981C6.68596 14.2981 7.78763 14.5641 8.5474 15.1086C9.30716 15.6532 9.75036 16.5017 9.88965 17.6795L6.59732 17.8695C6.50868 17.3629 6.3314 16.9956 6.04016 16.755C5.76158 16.5144 5.36903 16.4004 4.87518 16.4131C4.46997 16.4131 4.16606 16.5017 3.96346 16.679C3.76085 16.831 3.64689 17.059 3.65955 17.3122C3.65955 17.5022 3.76085 17.6795 3.91281 17.7935C4.07742 17.9455 4.46997 18.0848 5.09045 18.2114C6.62265 18.5407 7.71165 18.87 8.38278 19.2119C9.05391 19.5538 9.53509 19.9718 9.82634 20.4657C10.1302 20.9723 10.2822 21.5548 10.2822 22.1374C10.2822 22.8466 10.0669 23.5431 9.67439 24.1384C9.25651 24.7589 8.67402 25.2402 7.99023 25.5314C7.26845 25.848 6.35673 26.0127 5.26773 26.0127C3.34298 26.0127 2.01339 25.6454 1.26628 24.8982C0.519175 24.1384 0.101302 23.2012 0 22.0614H0Z" fill="black"/>
<path d="M16.8415 21.1749L19.9059 22.0994C19.7413 22.8719 19.3994 23.6064 18.9309 24.2523C18.5004 24.8222 17.9305 25.2655 17.2847 25.5567C16.6263 25.848 15.7905 26 14.7775 26C13.5492 26 12.5362 25.8227 11.7637 25.4681C10.9786 25.1135 10.3075 24.4803 9.73769 23.5811C9.16786 22.6819 8.88928 21.5295 8.88928 20.1237C8.88928 18.2494 9.38313 16.8056 10.3835 15.8052C11.3839 14.8047 12.7894 14.2981 14.6129 14.2981C16.0438 14.2981 17.1581 14.5894 17.9812 15.1593C18.7916 15.7418 19.3994 16.6283 19.8046 17.8188L16.7149 18.5027C16.6389 18.2367 16.525 17.9708 16.373 17.7428C16.1831 17.4769 15.9425 17.2742 15.6512 17.1223C15.36 16.9703 15.0307 16.907 14.7015 16.907C13.9038 16.907 13.2959 17.2236 12.8781 17.8695C12.5615 18.338 12.3969 19.0852 12.3969 20.0984C12.3969 21.3522 12.5868 22.2133 12.9667 22.6819C13.3466 23.1505 13.8784 23.3785 14.5749 23.3785C15.246 23.3785 15.7525 23.1885 16.0944 22.8212C16.4363 22.4286 16.6896 21.8841 16.8415 21.1749ZM23.996 14.4881H27.4909V18.452H31.3151V14.4881H34.8354V25.81H31.3151V21.2255H27.4909V25.81H23.996V14.4881Z" fill="black"/>
<path d="M34.3542 20.1491C34.3542 18.3001 34.8734 16.8563 35.8991 15.8305C36.9248 14.8047 38.3684 14.2855 40.2045 14.2855C42.0912 14.2855 43.5348 14.792 44.5605 15.8052C45.5862 16.8183 46.0927 18.2368 46.0927 20.0604C46.0927 21.3902 45.8647 22.4667 45.4215 23.3152C44.991 24.151 44.3199 24.8349 43.4968 25.2908C42.6484 25.7594 41.5974 26 40.3438 26C39.0648 26 38.0138 25.7974 37.1781 25.3921C36.317 24.9615 35.6079 24.2903 35.1393 23.4671C34.6202 22.5806 34.3542 21.4788 34.3542 20.1491ZM37.8492 20.1617C37.8492 21.3015 38.0645 22.1247 38.4823 22.6313C38.9002 23.1252 39.4827 23.3785 40.2171 23.3785C40.9642 23.3785 41.5467 23.1379 41.9646 22.644C42.3825 22.1501 42.5851 21.2762 42.5851 20.0098C42.5851 18.946 42.3698 18.1608 41.9393 17.6795C41.5087 17.1856 40.9262 16.945 40.1918 16.945C39.546 16.9197 38.9255 17.1983 38.495 17.6922C38.0645 18.1861 37.8492 19.0093 37.8492 20.1617ZM49.6762 20.1491C49.6762 18.3001 50.1954 16.8563 51.2211 15.8305C52.2468 14.8047 53.6904 14.2855 55.5265 14.2855C57.4132 14.2855 58.8694 14.792 59.8825 15.8052C60.8955 16.8183 61.4147 18.2368 61.4147 20.0604C61.4147 21.3902 61.1867 22.4667 60.7435 23.3152C60.313 24.151 59.6419 24.8349 58.8188 25.2908C57.9704 25.7594 56.9194 26 55.6658 26C54.3868 26 53.3358 25.7974 52.5001 25.3921C51.639 24.9615 50.9299 24.2903 50.4613 23.4671C49.9422 22.5806 49.6762 21.4788 49.6762 20.1491ZM53.1712 20.1617C53.1712 21.3015 53.3864 22.1247 53.8043 22.6313C54.2222 23.1252 54.8047 23.3785 55.5391 23.3785C56.2862 23.3785 56.8687 23.1379 57.2866 22.644C57.7045 22.1501 57.9071 21.2762 57.9071 20.0098C57.9071 18.946 57.6918 18.1608 57.2613 17.6795C56.8307 17.1856 56.2482 16.945 55.5138 16.945C54.868 16.9197 54.2349 17.1983 53.817 17.6922C53.3865 18.1861 53.1712 19.0093 53.1712 20.1617Z" fill="black"/>
<path d="M61.0473 14.488H64.5423V23.0238H69.9999V25.81H61.0347V14.488H61.0473Z" fill="black"/>
<path d="M57.1952 13.8347C60.7139 11.1828 61.7989 6.68732 59.6187 3.79384C57.4385 0.900364 52.8187 0.704547 49.3 3.35647C45.7814 6.00839 44.6964 10.5038 46.8766 13.3973C49.0567 16.2908 53.6766 16.4866 57.1952 13.8347Z" fill="white"/>
<path d="M57.1952 13.8347C60.7139 11.1828 61.7989 6.68732 59.6187 3.79384C57.4385 0.900364 52.8187 0.704547 49.3 3.35647C45.7814 6.00839 44.6964 10.5038 46.8766 13.3973C49.0567 16.2908 53.6766 16.4866 57.1952 13.8347Z" fill="white"/>
<path d="M57.1952 13.8347C60.7139 11.1828 61.7989 6.68732 59.6187 3.79384C57.4385 0.900364 52.8187 0.704547 49.3 3.35647C45.7814 6.00839 44.6964 10.5038 46.8766 13.3973C49.0567 16.2908 53.6766 16.4866 57.1952 13.8347Z" stroke="black" stroke-miterlimit="10"/>
<path d="M49.6889 7.76332L50.9552 6.87682L52.5127 9.09309C52.7786 9.44769 52.9812 9.82762 53.1332 10.2455C53.2218 10.5622 53.1965 10.9041 53.0699 11.208C52.9052 11.588 52.6393 11.9046 52.2848 12.1325C51.8669 12.4238 51.5123 12.5885 51.2084 12.6391C50.9172 12.6898 50.6133 12.6391 50.3347 12.5125C50.0308 12.3605 49.7649 12.1452 49.5623 11.8666L50.6513 10.8534C50.7399 10.9927 50.8539 11.1194 50.9805 11.2207C51.0691 11.284 51.1704 11.322 51.2844 11.322C51.373 11.322 51.4617 11.284 51.525 11.2334C51.6516 11.1574 51.7403 11.0054 51.7276 10.8534C51.6896 10.6381 51.601 10.4228 51.4617 10.2582L49.6889 7.76332ZM53.4877 9.16907L54.64 8.25724C54.7667 8.40921 54.9313 8.52319 55.1086 8.58651C55.3618 8.6625 55.6277 8.61184 55.843 8.4472C55.995 8.34589 56.1216 8.20658 56.1722 8.02928C56.2482 7.80132 56.1216 7.54803 55.8937 7.47204C55.8557 7.45938 55.8177 7.44671 55.7797 7.44671C55.6277 7.43405 55.3618 7.49737 54.9693 7.66201C54.3235 7.92796 53.817 8.02928 53.4371 7.99128C53.0699 7.95329 52.728 7.76332 52.5254 7.44671C52.3734 7.23142 52.2974 6.97813 52.2848 6.72484C52.2848 6.43356 52.3607 6.14228 52.5254 5.90166C52.7659 5.55972 53.0572 5.26844 53.4117 5.04048C53.9436 4.67321 54.4121 4.49591 54.8173 4.49591C55.2225 4.49591 55.6024 4.68588 55.957 5.07847L54.8173 5.97765C54.5894 5.68636 54.1589 5.62304 53.8676 5.851L53.8296 5.88899C53.703 5.96498 53.6144 6.07896 53.5637 6.21827C53.5257 6.31958 53.551 6.43356 53.6144 6.52221C53.665 6.58554 53.741 6.63619 53.8296 6.63619C53.9309 6.64886 54.1082 6.5982 54.3615 6.48422C54.9946 6.21827 55.4758 6.0663 55.805 6.01564C56.0836 5.96498 56.3748 5.99031 56.6408 6.10429C56.8814 6.2056 57.084 6.38291 57.2233 6.5982C57.4005 6.85149 57.5018 7.15543 57.5145 7.47204C57.5272 7.80132 57.4385 8.11793 57.2612 8.39654C57.0333 8.73848 56.7421 9.02976 56.4002 9.25772C55.7037 9.73897 55.1339 9.9416 54.678 9.86561C54.1842 9.78963 53.779 9.53634 53.4877 9.16907Z" fill="black"/>
</g>
<defs>
<clipPath id="clip0_305_1027">
<rect width="70" height="26" fill="white"/>
</clipPath>
</defs>
</svg>
